<svg width="1354" height="140" viewBox="0 0 1354 140" fill="none" xmlns="http://www.w3.org/2000/svg">
<rect x="5" y="5" width="1344" height="130" rx="15" fill="#FAB2CD" stroke="#FAB2CD" stroke-width="10"/>
<rect x="38" y="18" width="104" height="104" rx="25" fill="#002763" stroke="#002763" stroke-width="10"/>
<path d="M96.5052 62.0945C96.3632 60.6622 95.7536 59.5495 94.6764 58.7564C93.5992 57.9633 92.1373 57.5668 90.2907 57.5668C89.036 57.5668 87.9766 57.7443 87.1125 58.0994C86.2484 58.4427 85.5855 58.9221 85.1238 59.5376C84.674 60.1532 84.4491 60.8516 84.4491 61.6328C84.4255 62.2839 84.5616 62.852 84.8575 63.3374C85.1653 63.8227 85.5855 64.2429 86.1182 64.598C86.6508 64.9413 87.2664 65.2431 87.9648 65.5036C88.6631 65.7521 89.4089 65.9652 90.202 66.1428L93.469 66.924C95.0552 67.2791 96.5112 67.7526 97.8369 68.3445C99.1627 68.9363 100.311 69.6643 101.282 70.5284C102.252 71.3925 103.004 72.4105 103.536 73.5824C104.081 74.7543 104.359 76.0978 104.371 77.6129C104.359 79.8383 103.791 81.7678 102.666 83.4013C101.554 85.023 99.9439 86.2836 97.8369 87.1832C95.7417 88.071 93.2145 88.5149 90.2552 88.5149C87.3196 88.5149 84.7628 88.0651 82.5848 87.1655C80.4186 86.2659 78.7259 84.9342 77.5067 83.1705C76.2993 81.3949 75.666 79.1991 75.6068 76.5831H83.0464C83.1293 77.8023 83.4785 78.8203 84.094 79.6371C84.7214 80.442 85.5559 81.0516 86.5976 81.4659C87.6511 81.8684 88.8407 82.0696 90.1665 82.0696C91.4685 82.0696 92.599 81.8802 93.5578 81.5014C94.5284 81.1226 95.2801 80.5959 95.8128 79.9212C96.3454 79.2464 96.6118 78.4711 96.6118 77.5952C96.6118 76.7784 96.3691 76.0919 95.8838 75.5355C95.4103 74.9792 94.7119 74.5057 93.7886 74.1151C92.8772 73.7244 91.7586 73.3693 90.4328 73.0497L86.4733 72.0554C83.4075 71.3097 80.9868 70.1437 79.2112 68.5575C77.4356 66.9714 76.5538 64.8348 76.5656 62.1477C76.5538 59.946 77.1397 58.0225 78.3234 56.3771C79.519 54.7318 81.1584 53.4474 83.2417 52.5241C85.3251 51.6009 87.6925 51.1392 90.344 51.1392C93.0429 51.1392 95.3985 51.6009 97.4108 52.5241C99.4349 53.4474 101.009 54.7318 102.134 56.3771C103.258 58.0225 103.838 59.9283 103.874 62.0945H96.5052Z" fill="#FAB2CD"/>
<rect x="205" y="18" width="104" height="104" rx="25" fill="#002763" stroke="#002763" stroke-width="10"/>
<path d="M272.446 64.3672H264.669C264.527 63.361 264.237 62.4673 263.799 61.6861C263.361 60.893 262.799 60.2183 262.112 59.6619C261.426 59.1056 260.633 58.6794 259.733 58.3835C258.845 58.0876 257.881 57.9396 256.839 57.9396C254.957 57.9396 253.317 58.4072 251.921 59.3423C250.524 60.2656 249.441 61.6151 248.671 63.3906C247.902 65.1544 247.517 67.2969 247.517 69.8182C247.517 72.4105 247.902 74.5885 248.671 76.3523C249.453 78.116 250.542 79.4477 251.938 80.3473C253.335 81.2469 254.951 81.6967 256.786 81.6967C257.816 81.6967 258.768 81.5606 259.644 81.2884C260.532 81.0161 261.319 80.6196 262.006 80.0987C262.692 79.5661 263.261 78.9209 263.71 78.1634C264.172 77.4058 264.492 76.5417 264.669 75.571L272.446 75.6065C272.245 77.2756 271.742 78.8854 270.937 80.4361C270.144 81.9749 269.073 83.3539 267.723 84.5732C266.386 85.7805 264.788 86.7393 262.929 87.4496C261.083 88.148 258.993 88.4972 256.661 88.4972C253.418 88.4972 250.518 87.7633 247.961 86.2955C245.416 84.8277 243.404 82.7029 241.924 79.9212C240.456 77.1394 239.722 73.7718 239.722 69.8182C239.722 65.8527 240.468 62.4792 241.96 59.6974C243.451 56.9157 245.475 54.7969 248.032 53.3409C250.589 51.8731 253.465 51.1392 256.661 51.1392C258.768 51.1392 260.722 51.4351 262.521 52.027C264.332 52.6188 265.936 53.483 267.333 54.6193C268.729 55.7438 269.866 57.1229 270.742 58.7564C271.629 60.3899 272.198 62.2602 272.446 64.3672Z" fill="#FAB2CD"/>
<rect x="371" y="18" width="104" height="104" rx="25" fill="#002763" stroke="#002763" stroke-width="10"/>
<path d="M409.754 88V51.6364H424.101C426.847 51.6364 429.191 52.1276 431.132 53.1101C433.085 54.0807 434.571 55.4598 435.589 57.2472C436.619 59.0227 437.134 61.112 437.134 63.5149C437.134 65.9297 436.613 68.0071 435.571 69.7472C434.529 71.4754 433.02 72.8011 431.043 73.7244C429.078 74.6477 426.699 75.1094 423.906 75.1094H414.3V68.9304H422.663C424.13 68.9304 425.35 68.7292 426.32 68.3267C427.291 67.9242 428.013 67.3205 428.487 66.5156C428.972 65.7107 429.214 64.7105 429.214 63.5149C429.214 62.3075 428.972 61.2895 428.487 60.4609C428.013 59.6323 427.285 59.005 426.303 58.5788C425.332 58.1409 424.107 57.9219 422.627 57.9219H417.442V88H409.754ZM429.392 71.4517L438.43 88H429.942L421.1 71.4517H429.392Z" fill="#FAB2CD"/>
<rect x="537" y="18" width="104" height="104" rx="25" fill="#002763" stroke="#002763" stroke-width="10"/>
<path d="M579.727 88H571.488L584.042 51.6364H593.949L606.485 88H598.246L589.138 59.946H588.854L579.727 88ZM579.212 73.7067H598.672V79.7081H579.212V73.7067Z" fill="#FAB2CD"/>
<rect x="703" y="18" width="104" height="104" rx="25" fill="#002763" stroke="#002763" stroke-width="10"/>
<path d="M737.285 51.6364H746.766L756.78 76.0682H757.206L767.221 51.6364H776.702V88H769.245V64.3317H768.943L759.532 87.8224H754.454L745.044 64.2429H744.742V88H737.285V51.6364Z" fill="#FAB2CD"/>
<rect x="871" y="18" width="104" height="104" rx="25" fill="#002763" stroke="#002763" stroke-width="10"/>
<path d="M911.632 88V51.6364H926.192C928.867 51.6364 931.098 52.0329 932.886 52.826C934.673 53.6191 936.017 54.7199 936.916 56.1286C937.816 57.5253 938.266 59.1352 938.266 60.9581C938.266 62.3786 937.982 63.6274 937.413 64.7045C936.845 65.7699 936.064 66.6458 935.07 67.3324C934.087 68.0071 932.963 68.4865 931.696 68.7706V69.1257C933.081 69.1849 934.377 69.5755 935.585 70.2976C936.804 71.0196 937.792 72.0317 938.55 73.3338C939.307 74.6241 939.686 76.1629 939.686 77.9503C939.686 79.8797 939.207 81.602 938.248 83.1172C937.301 84.6205 935.898 85.8101 934.04 86.6861C932.181 87.562 929.891 88 927.168 88H911.632ZM919.32 81.7145H925.588C927.731 81.7145 929.293 81.3061 930.276 80.4893C931.258 79.6607 931.749 78.5599 931.749 77.1868C931.749 76.1806 931.507 75.2929 931.021 74.5234C930.536 73.754 929.844 73.1503 928.944 72.7124C928.056 72.2744 926.997 72.0554 925.766 72.0554H919.32V81.7145ZM919.32 66.853H925.02C926.073 66.853 927.009 66.6695 927.825 66.3026C928.654 65.9238 929.305 65.3911 929.778 64.7045C930.264 64.018 930.506 63.1953 930.506 62.2365C930.506 60.9226 930.039 59.8632 929.104 59.0582C928.18 58.2533 926.867 57.8509 925.162 57.8509H919.32V66.853Z" fill="#FAB2CD"/>
<rect x="1039" y="18" width="104" height="104" rx="25" fill="#002763" stroke="#002763" stroke-width="10"/>
<path d="M1079.98 88V51.6364H1087.66V81.6612H1103.25V88H1079.98Z" fill="#FAB2CD"/>
<rect x="1205" y="18" width="104" height="104" rx="25" fill="#002763" stroke="#002763" stroke-width="10"/>
<path d="M1244.85 88V51.6364H1269.36V57.9751H1252.54V66.6399H1268.1V72.9787H1252.54V81.6612H1269.43V88H1244.85Z" fill="#FAB2CD"/>
</svg>
