<svg width="1198" height="140" viewBox="0 0 1198 140" fill="none" xmlns="http://www.w3.org/2000/svg">
<rect x="5" y="5" width="1188" height="130" rx="15" fill="#FAB2CD" stroke="#FAB2CD" stroke-width="10"/>
<rect x="48" y="18" width="104" height="104" rx="25" fill="#002763" stroke="#002763" stroke-width="10"/>
<path d="M106.505 62.0945C106.363 60.6622 105.754 59.5495 104.676 58.7564C103.599 57.9633 102.137 57.5668 100.291 57.5668C99.036 57.5668 97.9766 57.7443 97.1125 58.0994C96.2484 58.4427 95.5855 58.9221 95.1238 59.5376C94.674 60.1532 94.4491 60.8516 94.4491 61.6328C94.4255 62.2839 94.5616 62.852 94.8575 63.3374C95.1653 63.8227 95.5855 64.2429 96.1182 64.598C96.6508 64.9413 97.2664 65.2431 97.9648 65.5036C98.6631 65.7521 99.4089 65.9652 100.202 66.1428L103.469 66.924C105.055 67.2791 106.511 67.7526 107.837 68.3445C109.163 68.9363 110.311 69.6643 111.282 70.5284C112.252 71.3925 113.004 72.4105 113.536 73.5824C114.081 74.7543 114.359 76.0978 114.371 77.6129C114.359 79.8383 113.791 81.7678 112.666 83.4013C111.554 85.023 109.944 86.2836 107.837 87.1832C105.742 88.071 103.215 88.5149 100.255 88.5149C97.3196 88.5149 94.7628 88.0651 92.5848 87.1655C90.4186 86.2659 88.7259 84.9342 87.5067 83.1705C86.2993 81.3949 85.666 79.1991 85.6068 76.5831H93.0464C93.1293 77.8023 93.4785 78.8203 94.094 79.6371C94.7214 80.442 95.5559 81.0516 96.5976 81.4659C97.6511 81.8684 98.8407 82.0696 100.166 82.0696C101.469 82.0696 102.599 81.8802 103.558 81.5014C104.528 81.1226 105.28 80.5959 105.813 79.9212C106.345 79.2464 106.612 78.4711 106.612 77.5952C106.612 76.7784 106.369 76.0919 105.884 75.5355C105.41 74.9792 104.712 74.5057 103.789 74.1151C102.877 73.7244 101.759 73.3693 100.433 73.0497L96.4733 72.0554C93.4075 71.3097 90.9868 70.1437 89.2112 68.5575C87.4356 66.9714 86.5538 64.8348 86.5656 62.1477C86.5538 59.946 87.1397 58.0225 88.3234 56.3771C89.519 54.7318 91.1584 53.4474 93.2417 52.5241C95.3251 51.6009 97.6925 51.1392 100.344 51.1392C103.043 51.1392 105.398 51.6009 107.411 52.5241C109.435 53.4474 111.009 54.7318 112.134 56.3771C113.258 58.0225 113.838 59.9283 113.874 62.0945H106.505Z" fill="#FAB2CD"/>
<rect x="215" y="18" width="104" height="104" rx="25" fill="#002763" stroke="#002763" stroke-width="10"/>
<path d="M263.33 75.358H269.864L273.149 79.5838L276.38 83.348L282.471 90.983H275.297L271.107 85.8338L268.959 82.7798L263.33 75.358ZM283.021 69.8182C283.021 73.7836 282.269 77.1572 280.766 79.9389C279.275 82.7206 277.239 84.8454 274.658 86.3132C272.089 87.7692 269.201 88.4972 265.993 88.4972C262.762 88.4972 259.862 87.7633 257.293 86.2955C254.724 84.8277 252.694 82.7029 251.203 79.9212C249.711 77.1394 248.966 73.7718 248.966 69.8182C248.966 65.8527 249.711 62.4792 251.203 59.6974C252.694 56.9157 254.724 54.7969 257.293 53.3409C259.862 51.8731 262.762 51.1392 265.993 51.1392C269.201 51.1392 272.089 51.8731 274.658 53.3409C277.239 54.7969 279.275 56.9157 280.766 59.6974C282.269 62.4792 283.021 65.8527 283.021 69.8182ZM275.226 69.8182C275.226 67.2495 274.842 65.0833 274.072 63.3196C273.315 61.5559 272.243 60.2183 270.858 59.3068C269.473 58.3954 267.852 57.9396 265.993 57.9396C264.135 57.9396 262.513 58.3954 261.128 59.3068C259.743 60.2183 258.666 61.5559 257.897 63.3196C257.139 65.0833 256.76 67.2495 256.76 69.8182C256.76 72.3868 257.139 74.553 257.897 76.3168C258.666 78.0805 259.743 79.4181 261.128 80.3295C262.513 81.241 264.135 81.6967 265.993 81.6967C267.852 81.6967 269.473 81.241 270.858 80.3295C272.243 79.4181 273.315 78.0805 274.072 76.3168C274.842 74.553 275.226 72.3868 275.226 69.8182Z" fill="#FAB2CD"/>
<rect x="381" y="18" width="104" height="104" rx="25" fill="#002763" stroke="#002763" stroke-width="10"/>
<path d="M440.384 51.6364H448.072V75.2514C448.072 77.9029 447.439 80.223 446.172 82.2116C444.918 84.2003 443.16 85.7509 440.899 86.8636C438.638 87.9645 436.004 88.5149 432.998 88.5149C429.979 88.5149 427.34 87.9645 425.079 86.8636C422.818 85.7509 421.06 84.2003 419.805 82.2116C418.551 80.223 417.923 77.9029 417.923 75.2514V51.6364H425.611V74.5945C425.611 75.9794 425.913 77.2105 426.517 78.2876C427.132 79.3648 427.997 80.2112 429.109 80.8267C430.222 81.4422 431.518 81.75 432.998 81.75C434.489 81.75 435.785 81.4422 436.886 80.8267C437.999 80.2112 438.857 79.3648 439.461 78.2876C440.076 77.2105 440.384 75.9794 440.384 74.5945V51.6364Z" fill="#FAB2CD"/>
<rect x="547" y="18" width="104" height="104" rx="25" fill="#002763" stroke="#002763" stroke-width="10"/>
<path d="M589.727 88H581.488L594.042 51.6364H603.949L616.485 88H608.246L599.138 59.946H598.854L589.727 88ZM589.212 73.7067H608.672V79.7081H589.212V73.7067Z" fill="#FAB2CD"/>
<rect x="713" y="18" width="104" height="104" rx="25" fill="#002763" stroke="#002763" stroke-width="10"/>
<path d="M764.863 88H751.972V51.6364H764.969C768.627 51.6364 771.776 52.3643 774.415 53.8203C777.055 55.2644 779.085 57.3419 780.505 60.0526C781.938 62.7633 782.654 66.0066 782.654 69.7827C782.654 73.5705 781.938 76.8258 780.505 79.5483C779.085 82.2708 777.043 84.3601 774.38 85.8161C771.728 87.272 768.556 88 764.863 88ZM759.66 81.4126H764.543C766.816 81.4126 768.727 81.0102 770.278 80.2053C771.841 79.3885 773.013 78.1278 773.794 76.4233C774.587 74.7069 774.983 72.4934 774.983 69.7827C774.983 67.0956 774.587 64.8999 773.794 63.1953C773.013 61.4908 771.847 60.236 770.296 59.4311C768.745 58.6262 766.834 58.2237 764.561 58.2237H759.66V81.4126Z" fill="#FAB2CD"/>
<rect x="881" y="18" width="104" height="104" rx="25" fill="#002763" stroke="#002763" stroke-width="10"/>
<path d="M921.976 88V51.6364H929.664V81.6612H945.254V88H921.976Z" fill="#FAB2CD"/>
<rect x="1047" y="18" width="104" height="104" rx="25" fill="#002763" stroke="#002763" stroke-width="10"/>
<path d="M1086.85 88V51.6364H1111.36V57.9751H1094.54V66.6399H1110.1V72.9787H1094.54V81.6612H1111.43V88H1086.85Z" fill="#FAB2CD"/>
</svg>
